PathFileType	4	(X/Y/Z)	D:\Share\Shared_Data\Ergonomics\Sit To Stand Pertubation\S0\2D_Symmetric_STS Cal 01.trc
DataRate	CameraRate	NumFrames	NumMarkers	Units	OrigDataRate	OrigDataStartFrame	OrigNumFrames	
100	100	6	21	mm	100	1728	36
Frame#	Time	R_ASIS			R_Pelvis			V_Sacral			L_Pelvis			L_ASIS			Clavical			R_Acromium			L_Acromium			Sternum			Torso			R_Thigh_Med			R_Thigh_Lat			R_Thigh			R_Shank_Med			R_Shank_Lat			R_Shank			R_Heel			R_Toe			RAJC			RHJC			RKJC			
		X1	Y1	Z1	X2	Y2	Z2	X3	Y3	Z3	X4	Y4	Z4	X5	Y5	Z5	X6	Y6	Z6	X7	Y7	Z7	X8	Y8	Z8	X9	Y9	Z9	X10	Y10	Z10	X11	Y11	Z11	X12	Y12	Z12	X13	Y13	Z13	X14	Y14	Z14	X15	Y15	Z15	X16	Y16	Z16	X17	Y17	Z17	X18	Y18	Z18	X19	Y19	Z19	X20	Y20	Z20	X21	Y21	Z21	

1728	17.27	313.07324	1003.7574	154.53334	191.22487	1030.9141	194.79811	77.035416	1048.4529	-36.387432	219.01888	1016.1398	-213.92274	329.70825	986.3194	-163.27144	315.82111	1452.0208	-6.8596354	223.98064	1502.649	136.85078	220.44649	1502.9025	-161.26537	354.59055	1359.5659	-23.761808	327.00183	1403.7784	-129.48659	227.86583	493.77646	32.575584	226.4514	519.08594	158.84277	314.80469	642.08862	94.345917	200.14474	101.76083	83.392197	141.43364	90.606323	169.67242	173.57716	319.07428	184.12051	104.18773	45.594631	127.59792	331.48914	43.230705	129.20337	170.78919	96.1835765	126.5323085	223.6159643	912.5466626	107.839044	227.158615	506.4312	95.709177
1729	17.28	313.14508	1003.7457	154.55313	191.20607	1030.9088	194.81494	77.094177	1048.4572	-36.348099	219.08128	1016.1229	-213.8853	329.77103	986.31067	-163.25478	315.82684	1452.0436	-6.8581595	223.97542	1502.7037	136.87859	220.45071	1502.9407	-161.25172	354.58325	1359.5792	-23.739281	327.0094	1403.7979	-129.46173	227.83298	493.78687	32.596931	226.37761	519.08783	158.8822	314.7803	642.07104	94.354485	200.08144	101.77492	83.425262	141.43037	90.582642	169.67508	173.54102	319.07687	184.13402	104.1736	45.592079	127.6028	331.4809	43.246792	129.2124	170.755905	96.178781	126.550171	223.6802049	912.5393465	107.8595632	227.105295	506.43735	95.7395655
1730	17.29	313.1748	1003.7244	154.56181	191.19743	1030.8992	194.8387	77.126488	1048.4423	-36.331467	219.13489	1016.0947	-213.84425	329.82837	986.30957	-163.22716	315.81772	1452.0438	-6.8387213	223.98431	1502.7522	136.91281	220.48088	1502.9595	-161.23007	354.60034	1359.5852	-23.7141	327.03284	1403.8105	-129.43365	227.80046	493.77612	32.614632	226.37831	519.08594	158.89246	314.8208	642.0697	94.359161	200.08981	101.7697	83.432945	141.42166	90.58773	169.69893	173.52409	319.06448	184.14961	104.181	45.569416	127.59651	331.49158	43.229122	129.20314	170.755735	96.178715	126.5659375	223.7160391	912.5236099	107.8578013	227.089385	506.43103	95.753546
1731	17.3	313.20691	1003.7169	154.59647	191.16585	1030.8875	194.85475	77.176468	1048.4397	-36.305401	219.18323	1016.082	-213.81549	329.8952	986.31378	-163.19531	315.8631	1452.0498	-6.8032212	224.01273	1502.8004	136.94002	220.52609	1502.9703	-161.2211	354.59961	1359.5686	-23.681314	327.048	1403.7993	-129.39995	227.82742	493.76227	32.6287	226.43767	519.07898	158.89497	314.86322	642.06647	94.37941	200.10422	101.77515	83.440086	141.41724	90.590523	169.67566	173.53635	319.04379	184.15276	104.17489	45.576618	127.61128	331.48331	43.246292	129.22195	170.76073	96.1828365	126.557873	223.7541673	912.5154073	107.8788293	227.132545	506.420625	95.761835
1732	17.31	313.23947	1003.7133	154.6442	191.1308	1030.8756	194.8941	77.23037	1048.4387	-36.275887	219.2263	1016.0699	-213.79379	329.95468	986.31097	-163.15376	315.87201	1452.0463	-6.7788234	224.04933	1502.8402	136.96892	220.60692	1502.9634	-161.18301	354.59995	1359.5449	-23.634722	327.07178	1403.7875	-129.36284	227.91811	493.75604	32.673103	226.55968	519.07764	158.92329	314.94946	642.05768	94.415871	200.10666	101.77067	83.43988	141.43613	90.595024	169.7001	173.59479	319.04385	184.16559	104.18642	45.583504	127.60899	331.49109	43.256191	129.22855	170.771395	96.182847	126.56999	223.7903891	912.510517	107.9175324	227.238895	506.41684	95.7981965
1733	17.32	313.26456	1003.7137	154.68109	191.20914	1030.8622	194.90619	77.3004	1048.4282	-36.266815	219.29988	1016.0643	-213.76192	330.02536	986.3125	-163.12135	315.89203	1452.033	-6.7491565	224.08896	1502.8735	137.00339	220.67717	1502.9933	-161.18532	354.64026	1359.5264	-23.595535	327.08655	1403.766	-129.31998	228.04251	493.74094	32.698792	226.69174	519.05573	158.92921	315.01855	642.0556	94.446892	200.19148	101.7636	83.417717	141.43462	90.593025	169.69557	173.66946	319.0238	184.1714	104.18063	45.57375	127.58708	331.48175	43.233891	129.22414	170.81305	96.1783125	126.5566435	223.8293309	912.5051567	107.9408086	227.367125	506.398335	95.814001
